P2
11 10
40
40 5 5 5 5 5 5 5 5 40 0
5 20 20 5 5 5 5 5 5 5 5
5 5 20 5 5 5 0 0 0 0 0
5 5 20 20 5 5 20 20 0 0 5
5 5 5 5 5 5 0 20 0 0 0
5 5 5 5 5 5 0 20 20 0 5
5 5 5 5 11 11 11 0 0 0 0
5 5 5 5 20 20 11 5 5 5 5
5 5 5 5 11 20 11 5 5 5 0
40 5 5 5 11 20 20 5 5 40 5